<?xml version="1.0" encoding="UTF-8" standalone="no"?>
<svg
   xmlns:dc="http://purl.org/dc/elements/1.1/"
   xmlns:cc="http://creativecommons.org/ns#"
   xmlns:rdf="http://www.w3.org/1999/02/22-rdf-syntax-ns#"
   xmlns:svg="http://www.w3.org/2000/svg"
   xmlns="http://www.w3.org/2000/svg"
   xmlns:sodipodi="http://sodipodi.sourceforge.net/DTD/sodipodi-0.dtd"
   xmlns:inkscape="http://www.inkscape.org/namespaces/inkscape"
   width="59.562679mm"
   height="7.6623092mm"
   viewBox="0 0 59.562679 7.6623092"
   version="1.1"
   id="svg8"
   inkscape:version="1.0.2 (1.0.2+r75+1)"
   sodipodi:docname="caps_lukeweiler_bauhaus.svg">
  <defs
     id="defs2" />
  <sodipodi:namedview
     id="base"
     pagecolor="#ffffff"
     bordercolor="#666666"
     borderopacity="1.0"
     inkscape:pageopacity="0.0"
     inkscape:pageshadow="2"
     inkscape:zoom="0.35"
     inkscape:cx="186.7748"
     inkscape:cy="40.222055"
     inkscape:document-units="mm"
     inkscape:current-layer="layer1"
     inkscape:document-rotation="0"
     showgrid="false"
     fit-margin-top="0"
     fit-margin-left="0"
     fit-margin-right="0"
     fit-margin-bottom="0"
     inkscape:window-width="954"
     inkscape:window-height="1014"
     inkscape:window-x="962"
     inkscape:window-y="32"
     inkscape:window-maximized="1" />
  <metadata
     id="metadata5">
    <rdf:RDF>
      <cc:Work
         rdf:about="">
        <dc:format>image/svg+xml</dc:format>
        <dc:type
           rdf:resource="http://purl.org/dc/dcmitype/StillImage" />
        <dc:title></dc:title>
      </cc:Work>
    </rdf:RDF>
  </metadata>
  <g
     inkscape:label="Layer 1"
     inkscape:groupmode="layer"
     id="layer1"
     transform="translate(-56.415834,-137.52458)">
    <g
       aria-label="LUKE WEILER"
       id="text835"
       style="font-size:10.5833px;line-height:0;font-family:'ITC Bauhaus';-inkscape-font-specification:'ITC Bauhaus, Normal';letter-spacing:0px;word-spacing:0px;stroke-width:0.264583">
      <path
         d="m 56.415834,137.66216 v 4.92124 c 0,1.68274 0.836081,2.47649 2.582325,2.47649 h 1.460495 v -1.72508 h -1.428745 c -0.507998,0 -0.772581,-0.254 -0.772581,-0.76199 v -4.91066 z"
         style="fill:#ffffff;fill-opacity:1;stroke-width:0.264583"
         id="path837" />
      <path
         d="M 66.417027,137.66216 H 64.5967 v 4.47674 c 0,0.81491 -0.359833,1.23825 -0.99483,1.23825 -0.624415,0 -0.984247,-0.42334 -0.984247,-1.23825 v -4.47674 h -1.830911 v 4.37091 c 0,1.97907 1.164163,3.15382 2.815158,3.15382 1.650994,0 2.815157,-1.17475 2.815157,-3.15382 z"
         style="fill:#ffffff;fill-opacity:1;stroke-width:0.264583"
         id="path839" />
      <path
         d="m 67.464754,145.05989 h 1.841494 v -3.03741 h 0.751414 c 0.783164,0 0.952497,0.3175 0.952497,1.10067 v 1.93674 h 1.820328 v -2.20133 c 0,-1.29116 -0.243416,-1.90499 -1.365246,-2.09549 0.465665,-0.23283 0.624415,-0.58208 0.804331,-0.96308 l 1.02658,-2.13783 h -2.05316 l -0.582082,1.31233 c -0.359832,0.81492 -0.507998,1.24883 -1.09008,1.24883 h -0.264582 v -2.56116 h -1.841494 z"
         style="fill:#ffffff;fill-opacity:1;stroke-width:0.264583"
         id="path841" />
      <path
         d="m 78.397284,145.05989 v -1.69333 c -0.116416,0.0106 -0.243416,0.0106 -0.349249,0.0106 -1.375829,0 -2.190743,-0.41275 -2.434159,-1.22767 h 2.783408 v -1.65099 h -2.751658 c 0.338666,-0.81492 1.100663,-1.16416 2.370659,-1.16416 0.116417,0 0.243416,0 0.380999,0.0106 v -1.68275 c -0.0635,0 -0.127,0 -0.190499,0 -1.28058,0 -2.24366,0.20109 -2.910408,0.62442 -1.09008,0.6985 -1.693328,1.79916 -1.693328,3.06916 0,1.26999 0.603248,2.38124 1.693328,3.07974 0.666748,0.42333 1.629828,0.62441 2.910408,0.62441 0.0635,0 0.126999,0 0.190499,0 z"
         style="fill:#ffffff;fill-opacity:1;stroke-width:0.264583"
         id="path843" />
      <path
         d="m 82.323671,137.66216 v 4.58257 c 0,1.8415 1.09008,2.94216 2.624658,2.94216 0.634998,0 1.195913,-0.254 1.714495,-0.77258 0.518581,0.51858 1.079496,0.77258 1.714494,0.77258 1.545162,0 2.624659,-1.09008 2.624659,-2.94216 v -4.58257 h -1.799161 v 4.69899 c 0,0.67733 -0.296333,1.03716 -0.825498,1.03716 -0.529165,0 -0.825497,-0.35983 -0.825497,-1.03716 v -4.69899 h -1.777994 v 4.69899 c 0,0.67733 -0.296333,1.03716 -0.825498,1.03716 -0.529165,0 -0.825497,-0.35983 -0.825497,-1.03716 v -4.69899 z"
         style="fill:#ffffff;fill-opacity:1;stroke-width:0.264583"
         id="path845" />
      <path
         d="m 96.589953,145.05989 v -1.69333 c -0.116416,0.0106 -0.243416,0.0106 -0.349249,0.0106 -1.375829,0 -2.190743,-0.41275 -2.434159,-1.22767 h 2.783408 v -1.65099 h -2.751658 c 0.338666,-0.81492 1.100663,-1.16416 2.370659,-1.16416 0.116416,0 0.243416,0 0.380999,0.0106 v -1.68275 c -0.0635,0 -0.127,0 -0.190499,0 -1.28058,0 -2.24366,0.20109 -2.910408,0.62442 -1.09008,0.6985 -1.693328,1.79916 -1.693328,3.06916 0,1.26999 0.603248,2.38124 1.693328,3.07974 0.666748,0.42333 1.629828,0.62441 2.910408,0.62441 0.0635,0 0.126999,0 0.190499,0 z"
         style="fill:#ffffff;fill-opacity:1;stroke-width:0.264583"
         id="path847" />
      <path
         d="m 97.605937,145.05989 h 1.841494 v -7.39773 h -1.841494 z"
         style="fill:#ffffff;fill-opacity:1;stroke-width:0.264583"
         id="path849" />
      <path
         d="m 100.51634,137.66216 v 4.92124 c 0,1.68274 0.83608,2.47649 2.58232,2.47649 h 1.4605 v -1.72508 h -1.42875 c -0.50799,0 -0.77258,-0.254 -0.77258,-0.76199 v -4.91066 z"
         style="fill:#ffffff;fill-opacity:1;stroke-width:0.264583"
         id="path851" />
      <path
         d="m 109.69205,145.05989 v -1.69333 c -0.11642,0.0106 -0.24342,0.0106 -0.34925,0.0106 -1.37583,0 -2.19075,-0.41275 -2.43416,-1.22767 h 2.78341 v -1.65099 h -2.75166 c 0.33866,-0.81492 1.10066,-1.16416 2.37066,-1.16416 0.11641,0 0.24341,0 0.381,0.0106 v -1.68275 c -0.0635,0 -0.127,0 -0.1905,0 -1.28058,0 -2.24366,0.20109 -2.91041,0.62442 -1.09008,0.6985 -1.69333,1.79916 -1.69333,3.06916 0,1.26999 0.60325,2.38124 1.69333,3.07974 0.66675,0.42333 1.62983,0.62441 2.91041,0.62441 0.0635,0 0.127,0 0.1905,0 z"
         style="fill:#ffffff;fill-opacity:1;stroke-width:0.264583"
         id="path853" />
      <path
         d="m 110.62336,145.04931 h 1.8415 v -4.8154 c 0,-0.66675 0.29633,-1.02658 0.79375,-1.02658 0.38099,0 0.67733,0.28575 0.67733,0.68791 0,0.45508 -0.29634,0.6985 -0.89958,0.6985 h -0.27517 v 1.66158 h 0.16933 c 0.889,0 1.2065,0.1905 1.2065,1.01599 v 1.78858 h 1.84149 v -2.24366 c 0,-0.97366 -0.35983,-1.42874 -1.32291,-1.53458 0.77258,-0.254 1.2065,-0.86783 1.2065,-1.60866 0,-1.143 -1.11125,-2.14841 -2.59291,-2.14841 -1.56633,0 -2.64583,1.06891 -2.64583,2.68816 z"
         style="fill:#ffffff;fill-opacity:1;stroke-width:0.264583"
         id="path855" />
    </g>
  </g>
</svg>
