<?xml version="1.0" encoding="UTF-8" standalone="no"?>
<svg
   xmlns:dc="http://purl.org/dc/elements/1.1/"
   xmlns:cc="http://creativecommons.org/ns#"
   xmlns:rdf="http://www.w3.org/1999/02/22-rdf-syntax-ns#"
   xmlns:svg="http://www.w3.org/2000/svg"
   xmlns="http://www.w3.org/2000/svg"
   xmlns:sodipodi="http://sodipodi.sourceforge.net/DTD/sodipodi-0.dtd"
   xmlns:inkscape="http://www.inkscape.org/namespaces/inkscape"
   width="47.106178mm"
   height="9.651969mm"
   viewBox="0 0 47.106178 9.651969"
   version="1.1"
   id="svg978"
   inkscape:version="1.0.2 (1.0.2+r75+1)"
   sodipodi:docname="developer_bauhaus.svg">
  <defs
     id="defs972" />
  <sodipodi:namedview
     id="base"
     pagecolor="#ffffff"
     bordercolor="#666666"
     borderopacity="1.0"
     inkscape:pageopacity="0.0"
     inkscape:pageshadow="2"
     inkscape:zoom="1.4"
     inkscape:cx="64.963618"
     inkscape:cy="-15.12133"
     inkscape:document-units="mm"
     inkscape:current-layer="text982"
     inkscape:document-rotation="0"
     showgrid="false"
     fit-margin-top="0"
     fit-margin-left="0"
     fit-margin-right="0"
     fit-margin-bottom="0"
     inkscape:window-width="954"
     inkscape:window-height="1014"
     inkscape:window-x="962"
     inkscape:window-y="32"
     inkscape:window-maximized="1" />
  <metadata
     id="metadata975">
    <rdf:RDF>
      <cc:Work
         rdf:about="">
        <dc:format>image/svg+xml</dc:format>
        <dc:type
           rdf:resource="http://purl.org/dc/dcmitype/StillImage" />
        <dc:title></dc:title>
      </cc:Work>
    </rdf:RDF>
  </metadata>
  <g
     inkscape:label="Layer 1"
     inkscape:groupmode="layer"
     id="layer1"
     transform="translate(-72.067009,-136.15446)">
    <g
       aria-label="Developer"
       id="text982"
       style="font-size:10.5833px;line-height:0;font-family:'ITC Bauhaus';-inkscape-font-specification:'ITC Bauhaus, Normal';letter-spacing:0px;word-spacing:0px;stroke-width:0.264583">
      <path
         d="m 72.067009,143.55219 h 1.841495 v -5.6409 c 0.0635,0 0.116416,-0.0106 0.179916,-0.0106 1.227662,0 2.042576,0.83608 2.042576,1.93675 0,1.09008 -0.77258,1.89441 -1.936743,1.93674 v 1.778 c 0.920747,-0.0423 1.650994,-0.254 2.201326,-0.635 1.02658,-0.71967 1.629828,-1.8415 1.629828,-3.06916 0,-1.28058 -0.645581,-2.41299 -1.799161,-3.13266 -0.783164,-0.48683 -1.682744,-0.56091 -2.804574,-0.56091 h -1.354663 z"
         style="stroke-width:0.264583;fill:#ffffff;fill-opacity:1"
         id="path984" />
      <path
         d="m 84.068453,141.60486 -1.248829,-0.60325 c -0.370416,0.6985 -0.910164,1.06891 -1.513412,1.06891 -0.634998,0 -1.15358,-0.55033 -1.15358,-1.29116 0,-0.73025 0.529165,-1.28058 1.164163,-1.28058 0.201083,0 0.391582,0.0529 0.582082,0.17992 l -1.375829,0.95249 0.634998,0.96308 2.539992,-1.72507 c -0.550332,-1.0795 -1.418162,-1.651 -2.476492,-1.651 -0.709082,0 -1.365246,0.27517 -1.862661,0.78317 -0.507999,0.51858 -0.783164,1.18533 -0.783164,1.92616 0,0.74083 0.275165,1.40758 0.783164,1.92616 0.497415,0.508 1.164163,0.79374 1.862661,0.79374 1.238246,0 2.285992,-0.71966 2.846907,-2.04257 z"
         style="stroke-width:0.264583;fill:#ffffff;fill-opacity:1"
         id="path986" />
      <path
         d="m 86.439108,140.82169 -0.698498,-2.50824 h -1.693328 l 1.396995,4.31799 c 0.22225,0.68791 0.624415,1.01599 1.238247,1.01599 0.613831,0 1.02658,-0.32808 1.248829,-1.01599 l 1.386412,-4.31799 h -1.693328 l -0.687914,2.50824 c -0.105833,0.39159 -0.1905,0.74083 -0.253999,1.05833 -0.0635,-0.32808 -0.137583,-0.67733 -0.243416,-1.05833 z"
         style="stroke-width:0.264583;fill:#ffffff;fill-opacity:1"
         id="path988" />
      <path
         d="m 94.969239,141.60486 -1.24883,-0.60325 c -0.370415,0.6985 -0.910164,1.06891 -1.513412,1.06891 -0.634998,0 -1.153579,-0.55033 -1.153579,-1.29116 0,-0.73025 0.529165,-1.28058 1.164163,-1.28058 0.201082,0 0.391582,0.0529 0.582081,0.17992 l -1.375829,0.95249 0.634998,0.96308 2.539992,-1.72507 c -0.550331,-1.0795 -1.418162,-1.651 -2.476492,-1.651 -0.709081,0 -1.365246,0.27517 -1.862661,0.78317 -0.507998,0.51858 -0.783164,1.18533 -0.783164,1.92616 0,0.74083 0.275166,1.40758 0.783164,1.92616 0.497415,0.508 1.164163,0.79374 1.862661,0.79374 1.238246,0 2.285993,-0.71966 2.846908,-2.04257 z"
         style="stroke-width:0.264583;fill:#ffffff;fill-opacity:1"
         id="path990" />
      <path
         d="m 95.551315,143.55219 h 1.672162 v -7.39773 h -1.672162 z"
         style="stroke-width:0.264583;fill:#ffffff;fill-opacity:1"
         id="path992" />
      <path
         d="m 97.974871,140.92753 c 0,0.74083 0.275166,1.39699 0.783165,1.92616 0.497415,0.508 1.153579,0.79374 1.862664,0.79374 0.70908,0 1.37583,-0.27516 1.87324,-0.79374 0.508,-0.51858 0.77258,-1.19592 0.77258,-1.92616 0,-0.73025 -0.26458,-1.40758 -0.77258,-1.92616 -0.49741,-0.51859 -1.16416,-0.79375 -1.87324,-0.79375 -0.709085,0 -1.365249,0.28575 -1.862664,0.79375 -0.507999,0.52916 -0.783165,1.18533 -0.783165,1.92616 z m 1.693328,-0.0106 c 0,-0.60324 0.433911,-1.06891 0.952501,-1.06891 0.51858,0 0.96308,0.46567 0.96308,1.06891 0,0.60325 -0.4445,1.06892 -0.96308,1.06892 -0.51859,0 -0.952501,-0.46567 -0.952501,-1.06892 z"
         style="stroke-width:0.264583;fill:#ffffff;fill-opacity:1"
         id="path994" />
      <path
         d="m 103.97559,145.80643 h 1.62983 v -4.76249 c 0,-0.76199 0.34924,-1.16416 0.97366,-1.16416 0.58208,0 0.96308,0.39158 0.96308,1.03716 0,0.635 -0.381,1.04775 -1.016,1.04775 -0.16933,0 -0.381,-0.0529 -0.65616,-0.13758 v 1.71449 c 0.30691,0.0635 0.53975,0.0847 0.71966,0.0847 1.53458,0 2.63524,-1.143 2.63524,-2.70933 0,-1.58749 -1.12183,-2.70932 -2.63524,-2.70932 -1.05833,0 -1.96849,0.58208 -2.39182,1.51341 -0.21167,0.46567 -0.22225,0.9525 -0.22225,1.49225 0,0.0529 0,0.0952 0,0.14816 z"
         style="stroke-width:0.264583;fill:#ffffff;fill-opacity:1"
         id="path996" />
      <path
         d="m 115.23621,141.60486 -1.24883,-0.60325 c -0.37042,0.6985 -0.91016,1.06891 -1.51341,1.06891 -0.635,0 -1.15358,-0.55033 -1.15358,-1.29116 0,-0.73025 0.52916,-1.28058 1.16416,-1.28058 0.20108,0 0.39158,0.0529 0.58208,0.17992 l -1.37583,0.95249 0.635,0.96308 2.53999,-1.72507 c -0.55033,-1.0795 -1.41816,-1.651 -2.47649,-1.651 -0.70908,0 -1.36524,0.27517 -1.86266,0.78317 -0.508,0.51858 -0.78316,1.18533 -0.78316,1.92616 0,0.74083 0.27516,1.40758 0.78316,1.92616 0.49742,0.508 1.16416,0.79374 1.86266,0.79374 1.23825,0 2.28599,-0.71966 2.84691,-2.04257 z"
         style="stroke-width:0.264583;fill:#ffffff;fill-opacity:1"
         id="path998" />
      <path
         d="m 115.81828,143.55219 h 1.59808 v -1.9685 c 0,-1.19591 0.48683,-1.68274 1.68275,-1.68274 0.0212,0 0.0529,0 0.0741,0 v -1.5875 c -0.0741,0 -0.13758,0 -0.20108,0 -0.78317,0 -1.30175,0.22225 -1.64041,0.78317 v -0.78317 h -1.51342 z"
         style="stroke-width:0.264583;fill:#ffffff;fill-opacity:1"
         id="path1000" />
    </g>
  </g>
</svg>
