<?xml version="1.0" encoding="UTF-8" standalone="no"?>
<svg
   xmlns:dc="http://purl.org/dc/elements/1.1/"
   xmlns:cc="http://creativecommons.org/ns#"
   xmlns:rdf="http://www.w3.org/1999/02/22-rdf-syntax-ns#"
   xmlns:svg="http://www.w3.org/2000/svg"
   xmlns="http://www.w3.org/2000/svg"
   xmlns:sodipodi="http://sodipodi.sourceforge.net/DTD/sodipodi-0.dtd"
   xmlns:inkscape="http://www.inkscape.org/namespaces/inkscape"
   width="112.00638mm"
   height="15.818548mm"
   viewBox="0 0 112.00638 15.818548"
   version="1.1"
   id="svg8"
   inkscape:version="1.0.2 (1.0.2+r75+1)"
   sodipodi:docname="lukeweiler_bauhaus.svg">
  <defs
     id="defs2">
    <rect
       x="25.288957"
       y="98.787512"
       width="149.24057"
       height="48.591277"
       id="rect95" />
  </defs>
  <sodipodi:namedview
     id="base"
     pagecolor="#ffffff"
     bordercolor="#666666"
     borderopacity="1.0"
     inkscape:pageopacity="0.0"
     inkscape:pageshadow="2"
     inkscape:zoom="0.7"
     inkscape:cx="528.55777"
     inkscape:cy="211.67005"
     inkscape:document-units="mm"
     inkscape:current-layer="text12"
     inkscape:document-rotation="0"
     showgrid="false"
     inkscape:window-width="954"
     inkscape:window-height="1014"
     inkscape:window-x="962"
     inkscape:window-y="32"
     inkscape:window-maximized="1"
     fit-margin-top="0"
     fit-margin-left="0"
     fit-margin-right="0"
     fit-margin-bottom="0" />
  <metadata
     id="metadata5">
    <rdf:RDF>
      <cc:Work
         rdf:about="">
        <dc:format>image/svg+xml</dc:format>
        <dc:type
           rdf:resource="http://purl.org/dc/dcmitype/StillImage" />
        <dc:title></dc:title>
      </cc:Work>
    </rdf:RDF>
  </metadata>
  <g
     inkscape:label="Layer 1"
     inkscape:groupmode="layer"
     id="layer1"
     transform="translate(-36.420935,-107.33364)">
    <g
       aria-label="Luke Weiler"
       id="text12"
       style="font-size:21.6396px;line-height:0;font-family:'ITC Bauhaus';-inkscape-font-specification:'ITC Bauhaus, Normal';letter-spacing:0px;word-spacing:0px;stroke-width:0.54099">
      <path
         d="m 36.420935,107.76644 v 10.06241 c 0,3.4407 1.709528,5.06367 5.280062,5.06367 h 2.986265 v -3.52726 h -2.921346 c -1.038701,0 -1.579691,-0.51935 -1.579691,-1.55805 v -10.04077 z"
         style="stroke-width:0.541;stroke-miterlimit:4;stroke-dasharray:none;fill:#ffffff;fill-opacity:1"
         id="path72" />
      <path
         d="m 48.993513,112.18091 h -3.354138 v 5.43154 c 0,1.3633 0.194757,2.44528 0.908864,3.4407 0.952142,1.29838 2.380356,2.03412 4.003326,2.03412 2.834787,0 4.912189,-1.99084 4.912189,-5.47482 v -5.43154 h -3.354138 v 5.97253 c 0,0.99543 -0.649188,1.68789 -1.558051,1.68789 -0.908864,0 -1.558052,-0.69246 -1.558052,-1.68789 z"
         style="stroke-width:0.54099;fill:#ffffff;fill-opacity:1"
         id="path74" />
      <path
         d="m 57.346397,122.89252 h 3.354138 v -4.15481 h 1.211817 c 1.10362,0 1.601331,0.54099 1.601331,1.70953 v 2.44528 h 3.354138 v -2.85643 c 0,-1.90429 -0.670828,-2.92135 -2.380356,-3.3325 0.670828,-0.21639 1.146899,-0.67083 1.384934,-1.27674 l 1.255097,-3.24594 h -3.548894 l -0.692468,1.79609 c -0.432792,1.12526 -0.800665,1.64461 -1.558051,1.64461 h -0.627548 v -7.85517 h -3.354138 z"
         style="stroke-width:0.54099;fill:#ffffff;fill-opacity:1"
         id="path76" />
      <path
         d="m 79.743355,118.91083 -2.553472,-1.23346 c -0.757386,1.42822 -1.861006,2.1856 -3.094463,2.1856 -1.298376,0 -2.358717,-1.12526 -2.358717,-2.64003 0,-1.49313 1.08198,-2.61839 2.380356,-2.61839 0.411153,0 0.800666,0.1082 1.190178,0.36787 l -2.813148,1.94757 1.298376,1.9692 5.193504,-3.52725 c -1.125259,-2.20724 -2.899706,-3.37578 -5.063666,-3.37578 -1.449853,0 -2.791509,0.56263 -3.80857,1.60133 -1.038701,1.06034 -1.60133,2.42363 -1.60133,3.93841 0,1.51477 0.562629,2.87806 1.60133,3.9384 1.017061,1.0387 2.380356,1.62297 3.80857,1.62297 2.531833,0 4.674154,-1.47149 5.821052,-4.17644 z"
         style="stroke-width:0.54099;fill:#ffffff;fill-opacity:1"
         id="path78" />
      <path
         d="m 87.05752,107.76644 v 9.36994 c 0,3.76529 2.228879,6.01581 5.366621,6.01581 1.298376,0 2.445275,-0.51935 3.505615,-1.57969 1.060341,1.06034 2.20724,1.57969 3.505616,1.57969 3.159378,0 5.366618,-2.22888 5.366618,-6.01581 v -9.36994 h -3.67873 v 9.60798 c 0,1.38493 -0.60591,2.12068 -1.687888,2.12068 -1.08198,0 -1.687889,-0.73575 -1.687889,-2.12068 v -9.60798 H 94.11203 v 9.60798 c 0,1.38493 -0.605909,2.12068 -1.687889,2.12068 -1.08198,0 -1.687889,-0.73575 -1.687889,-2.12068 v -9.60798 z"
         style="stroke-width:0.54099;fill:#ffffff;fill-opacity:1"
         id="path80" />
      <path
         d="m 117.59099,118.91083 -2.55348,-1.23346 c -0.75738,1.42822 -1.861,2.1856 -3.09446,2.1856 -1.29838,0 -2.35872,-1.12526 -2.35872,-2.64003 0,-1.49313 1.08198,-2.61839 2.38036,-2.61839 0.41115,0 0.80066,0.1082 1.19018,0.36787 l -2.81315,1.94757 1.29837,1.9692 5.19351,-3.52725 c -1.12526,-2.20724 -2.89971,-3.37578 -5.06367,-3.37578 -1.44985,0 -2.79151,0.56263 -3.80857,1.60133 -1.0387,1.06034 -1.60133,2.42363 -1.60133,3.93841 0,1.51477 0.56263,2.87806 1.60133,3.9384 1.01706,1.0387 2.38036,1.62297 3.80857,1.62297 2.53184,0 4.67416,-1.47149 5.82106,-4.17644 z"
         style="stroke-width:0.54099;fill:#ffffff;fill-opacity:1"
         id="path82" />
      <path
         d="m 118.78115,122.89252 h 3.41906 v -10.71161 h -3.41906 z m -0.25967,-13.61131 c 0,1.08198 0.88722,1.9692 1.9692,1.9692 1.08198,0 1.96921,-0.88722 1.96921,-1.9692 0,-1.08198 -0.88723,-1.94757 -1.96921,-1.94757 -1.08198,0 -1.9692,0.86559 -1.9692,1.94757 z"
         style="stroke-width:0.54099;fill:#ffffff;fill-opacity:1"
         id="path84" />
      <path
         d="m 124.19101,122.89252 h 3.41906 v -15.12608 h -3.41906 z"
         style="stroke-width:0.54099;fill:#ffffff;fill-opacity:1"
         id="path86" />
      <path
         d="m 140.37739,118.91083 -2.55347,-1.23346 c -0.75739,1.42822 -1.86101,2.1856 -3.09446,2.1856 -1.29838,0 -2.35872,-1.12526 -2.35872,-2.64003 0,-1.49313 1.08198,-2.61839 2.38036,-2.61839 0.41115,0 0.80066,0.1082 1.19017,0.36787 l -2.81314,1.94757 1.29837,1.9692 5.19351,-3.52725 c -1.12526,-2.20724 -2.89971,-3.37578 -5.06367,-3.37578 -1.44985,0 -2.79151,0.56263 -3.80857,1.60133 -1.0387,1.06034 -1.60133,2.42363 -1.60133,3.93841 0,1.51477 0.56263,2.87806 1.60133,3.9384 1.01706,1.0387 2.38036,1.62297 3.80857,1.62297 2.53183,0 4.67415,-1.47149 5.82105,-4.17644 z"
         style="stroke-width:0.54099;fill:#ffffff;fill-opacity:1"
         id="path88" />
      <path
         d="m 141.56756,122.89252 h 3.26758 v -4.02497 c 0,-2.44527 0.99542,-3.4407 3.4407,-3.4407 0.0433,0 0.1082,0 0.15147,0 v -3.24594 c -0.15147,0 -0.28131,0 -0.41115,0 -1.60133,0 -2.66167,0.45444 -3.35414,1.60134 v -1.60134 h -3.09446 z"
         style="stroke-width:0.54099;fill:#ffffff;fill-opacity:1"
         id="path90" />
    </g>
    <text
       xml:space="preserve"
       id="text93"
       style="font-family:'ITC Bauhaus';font-size:10.58333333px;line-height:0;letter-spacing:0px;word-spacing:0px;-inkscape-font-specification:'ITC Bauhaus, Normal';white-space:pre;shape-inside:url(#rect95);" />
  </g>
</svg>
