<?xml version="1.0" encoding="UTF-8" standalone="no"?>
<svg
   xmlns:dc="http://purl.org/dc/elements/1.1/"
   xmlns:cc="http://creativecommons.org/ns#"
   xmlns:rdf="http://www.w3.org/1999/02/22-rdf-syntax-ns#"
   xmlns:svg="http://www.w3.org/2000/svg"
   xmlns="http://www.w3.org/2000/svg"
   xmlns:sodipodi="http://sodipodi.sourceforge.net/DTD/sodipodi-0.dtd"
   xmlns:inkscape="http://www.inkscape.org/namespaces/inkscape"
   width="93.77845mm"
   height="9.651969mm"
   viewBox="0 0 93.77845 9.651969"
   version="1.1"
   id="svg1602"
   inkscape:version="1.0.2 (1.0.2+r75+1)"
   sodipodi:docname="softwaredeveloper_bahaus.svg">
  <defs
     id="defs1596" />
  <sodipodi:namedview
     id="base"
     pagecolor="#ffffff"
     bordercolor="#666666"
     borderopacity="1.0"
     inkscape:pageopacity="0.0"
     inkscape:pageshadow="2"
     inkscape:zoom="0.7"
     inkscape:cx="289.13753"
     inkscape:cy="145.12834"
     inkscape:document-units="mm"
     inkscape:current-layer="text1606"
     inkscape:document-rotation="0"
     showgrid="false"
     fit-margin-top="0"
     fit-margin-left="0"
     fit-margin-right="0"
     fit-margin-bottom="0"
     inkscape:window-width="954"
     inkscape:window-height="1014"
     inkscape:window-x="962"
     inkscape:window-y="32"
     inkscape:window-maximized="1" />
  <metadata
     id="metadata1599">
    <rdf:RDF>
      <cc:Work
         rdf:about="">
        <dc:format>image/svg+xml</dc:format>
        <dc:type
           rdf:resource="http://purl.org/dc/dcmitype/StillImage" />
        <dc:title></dc:title>
      </cc:Work>
    </rdf:RDF>
  </metadata>
  <g
     inkscape:label="Layer 1"
     inkscape:groupmode="layer"
     id="layer1"
     transform="translate(-42.133179,-127.10597)">
    <g
       aria-label="Software Developer"
       id="text1606"
       style="font-size:10.5833px;line-height:0;font-family:'ITC Bauhaus';-inkscape-font-specification:'ITC Bauhaus, Normal';letter-spacing:0px;word-spacing:0px;stroke-width:0.264583">
      <path
         d="m 42.133179,134.50369 h 2.031994 c 0.04233,0 0.07408,0 0.116416,0 0.793748,0 1.460495,-0.0106 2.05316,-0.43391 0.507999,-0.35983 0.804331,-0.96308 0.804331,-1.62983 0,-0.77258 -0.423332,-1.44991 -1.217079,-1.93674 l -1.386413,-0.8255 c -0.328082,-0.20108 -0.486831,-0.39158 -0.486831,-0.59267 0,-0.23283 0.232832,-0.28575 0.709081,-0.28575 h 1.936743 v -1.69332 h -1.693328 c -0.973663,0 -1.661578,0.0318 -2.190743,0.48683 -0.423332,0.37041 -0.656164,0.89958 -0.656164,1.55574 0,0.65617 0.402165,1.34408 1.068913,1.74625 l 1.418162,0.85724 c 0.338666,0.21167 0.507999,0.41275 0.507999,0.62442 0,0.22225 -0.15875,0.35983 -0.465665,0.35983 h -2.550576 z"
         style="stroke-width:0.264583;fill:#ffffff;fill-opacity:1"
         id="path1608" />
      <path
         d="m 47.742315,131.87903 c 0,0.74084 0.275165,1.397 0.783164,1.92616 0.497415,0.508 1.15358,0.79375 1.862661,0.79375 0.709081,0 1.375829,-0.27516 1.873244,-0.79375 0.507998,-0.51858 0.77258,-1.19591 0.77258,-1.92616 0,-0.73024 -0.264582,-1.40757 -0.77258,-1.92616 -0.497415,-0.51858 -1.164163,-0.79374 -1.873244,-0.79374 -0.709081,0 -1.365246,0.28575 -1.862661,0.79374 -0.507999,0.52917 -0.783164,1.18533 -0.783164,1.92616 z m 1.693328,-0.0106 c 0,-0.60325 0.433915,-1.06891 0.952497,-1.06891 0.518581,0 0.96308,0.46566 0.96308,1.06891 0,0.60325 -0.444499,1.06891 -0.96308,1.06891 -0.518582,0 -0.952497,-0.46566 -0.952497,-1.06891 z"
         style="stroke-width:0.264583;fill:#ffffff;fill-opacity:1"
         id="path1610" />
      <path
         d="m 53.795948,134.50369 h 1.640412 v -3.70415 h 1.545161 v -1.53458 H 55.43636 v -0.10583 c 0,-0.37042 0.137582,-0.508 0.550331,-0.508 h 0.99483 v -1.54516 h -0.857247 c -1.598078,0 -2.328326,0.67733 -2.328326,2.16957 z"
         style="stroke-width:0.264583;fill:#ffffff;fill-opacity:1"
         id="path1612" />
      <path
         d="m 57.680008,127.98438 v 4.34974 c 0,1.49224 0.730248,2.16957 2.328326,2.16957 h 0.613831 v -1.54516 h -0.751414 c -0.412749,0 -0.550332,-0.13758 -0.550332,-0.508 v -1.65099 h 1.301746 v -1.53458 h -1.301746 v -1.28058 z"
         style="stroke-width:0.264583;fill:#ffffff;fill-opacity:1"
         id="path1614" />
      <path
         d="m 68.982964,129.26496 h -1.619245 v 3.01624 c 0,0.43391 -0.296333,0.73025 -0.687915,0.73025 -0.391582,0 -0.677331,-0.29634 -0.677331,-0.73025 v -3.01624 h -1.629828 v 3.01624 c 0,0.43391 -0.285749,0.73025 -0.677331,0.73025 -0.391582,0 -0.687915,-0.29634 -0.687915,-0.73025 v -3.01624 h -1.619245 v 2.76224 c 0,1.62983 0.963081,2.57174 2.30716,2.57174 0.529165,0 1.068913,-0.23283 1.492245,-0.67733 0.402165,0.4445 0.952497,0.67733 1.555745,0.67733 1.269996,0 2.24366,-0.95249 2.24366,-2.57174 z"
         style="stroke-width:0.264583;fill:#ffffff;fill-opacity:1"
         id="path1616" />
      <path
         d="m 73.29036,134.50369 h 1.640411 v -2.19074 c 0,-0.60325 0,-1.13241 -0.232832,-1.64041 -0.423332,-0.93133 -1.333496,-1.51341 -2.391826,-1.51341 -1.513412,0 -2.635242,1.12183 -2.635242,2.70932 0,1.56633 1.100663,2.70933 2.635242,2.70933 0.179916,0 0.412749,-0.0212 0.719664,-0.0847 v -1.7145 c -0.275166,0.0847 -0.486832,0.13759 -0.656164,0.13759 -0.634998,0 -1.015997,-0.41275 -1.015997,-1.04775 0,-0.635 0.391582,-1.03716 0.93133,-1.03716 0.666748,0 1.005414,0.39158 1.005414,1.16416 z"
         style="stroke-width:0.264583;fill:#ffffff;fill-opacity:1"
         id="path1618" />
      <path
         d="m 75.840923,134.50369 h 1.598079 v -1.96849 c 0,-1.19591 0.486831,-1.68275 1.682744,-1.68275 0.02117,0 0.05292,0 0.07408,0 v -1.58749 c -0.07408,0 -0.137582,0 -0.201082,0 -0.783164,0 -1.301746,0.22225 -1.640412,0.78316 v -0.78316 h -1.513412 z"
         style="stroke-width:0.264583;fill:#ffffff;fill-opacity:1"
         id="path1620" />
      <path
         d="m 85.175383,132.55637 -1.248829,-0.60325 c -0.370416,0.6985 -0.910164,1.06891 -1.513412,1.06891 -0.634998,0 -1.15358,-0.55033 -1.15358,-1.29116 0,-0.73025 0.529165,-1.28058 1.164163,-1.28058 0.201083,0 0.391582,0.0529 0.582082,0.17991 l -1.375829,0.9525 0.634998,0.96308 2.539991,-1.72508 c -0.550331,-1.07949 -1.418162,-1.65099 -2.476492,-1.65099 -0.709081,0 -1.365245,0.27517 -1.86266,0.78316 -0.507999,0.51859 -0.783165,1.18533 -0.783165,1.92616 0,0.74084 0.275166,1.40758 0.783165,1.92616 0.497415,0.508 1.164163,0.79375 1.86266,0.79375 1.238246,0 2.285993,-0.71966 2.846908,-2.04257 z"
         style="stroke-width:0.264583;fill:#ffffff;fill-opacity:1"
         id="path1622" />
      <path
         d="m 88.805443,134.50369 h 1.841494 v -5.6409 c 0.0635,0 0.116417,-0.0106 0.179917,-0.0106 1.227662,0 2.042576,0.83608 2.042576,1.93674 0,1.09008 -0.772581,1.89442 -1.936743,1.93675 v 1.77799 c 0.920747,-0.0423 1.650994,-0.254 2.201326,-0.635 1.02658,-0.71966 1.629828,-1.84149 1.629828,-3.06915 0,-1.28058 -0.645581,-2.41299 -1.799161,-3.13266 -0.783164,-0.48683 -1.682745,-0.56091 -2.804574,-0.56091 h -1.354663 z"
         style="stroke-width:0.264583;fill:#ffffff;fill-opacity:1"
         id="path1624" />
      <path
         d="m 100.80689,132.55637 -1.248832,-0.60325 c -0.370416,0.6985 -0.910164,1.06891 -1.513412,1.06891 -0.634998,0 -1.15358,-0.55033 -1.15358,-1.29116 0,-0.73025 0.529165,-1.28058 1.164163,-1.28058 0.201083,0 0.391582,0.0529 0.582082,0.17991 l -1.375829,0.9525 0.634998,0.96308 2.53999,-1.72508 c -0.55033,-1.07949 -1.418161,-1.65099 -2.476491,-1.65099 -0.709081,0 -1.365245,0.27517 -1.86266,0.78316 -0.507999,0.51859 -0.783165,1.18533 -0.783165,1.92616 0,0.74084 0.275166,1.40758 0.783165,1.92616 0.497415,0.508 1.164163,0.79375 1.86266,0.79375 1.238246,0 2.285991,-0.71966 2.846911,-2.04257 z"
         style="stroke-width:0.264583;fill:#ffffff;fill-opacity:1"
         id="path1626" />
      <path
         d="m 103.17754,131.7732 -0.69849,-2.50824 h -1.69333 l 1.39699,4.31799 c 0.22225,0.68791 0.62442,1.01599 1.23825,1.01599 0.61383,0 1.02658,-0.32808 1.24883,-1.01599 l 1.38641,-4.31799 h -1.69333 l -0.68791,2.50824 c -0.10583,0.39158 -0.1905,0.74083 -0.254,1.05833 -0.0635,-0.32808 -0.13758,-0.67733 -0.24342,-1.05833 z"
         style="stroke-width:0.264583;fill:#ffffff;fill-opacity:1"
         id="path1628" />
      <path
         d="m 111.70767,132.55637 -1.24883,-0.60325 c -0.37041,0.6985 -0.91016,1.06891 -1.51341,1.06891 -0.63499,0 -1.15358,-0.55033 -1.15358,-1.29116 0,-0.73025 0.52917,-1.28058 1.16417,-1.28058 0.20108,0 0.39158,0.0529 0.58208,0.17991 l -1.37583,0.9525 0.635,0.96308 2.53999,-1.72508 c -0.55033,-1.07949 -1.41816,-1.65099 -2.47649,-1.65099 -0.70908,0 -1.36525,0.27517 -1.86266,0.78316 -0.508,0.51859 -0.78317,1.18533 -0.78317,1.92616 0,0.74084 0.27517,1.40758 0.78317,1.92616 0.49741,0.508 1.16416,0.79375 1.86266,0.79375 1.23824,0 2.28599,-0.71966 2.8469,-2.04257 z"
         style="stroke-width:0.264583;fill:#ffffff;fill-opacity:1"
         id="path1630" />
      <path
         d="m 112.28975,134.50369 h 1.67216 v -7.39772 h -1.67216 z"
         style="stroke-width:0.264583;fill:#ffffff;fill-opacity:1"
         id="path1632" />
      <path
         d="m 114.7133,131.87903 c 0,0.74084 0.27517,1.397 0.78317,1.92616 0.49741,0.508 1.15358,0.79375 1.86266,0.79375 0.70908,0 1.37583,-0.27516 1.87324,-0.79375 0.508,-0.51858 0.77258,-1.19591 0.77258,-1.92616 0,-0.73024 -0.26458,-1.40757 -0.77258,-1.92616 -0.49741,-0.51858 -1.16416,-0.79374 -1.87324,-0.79374 -0.70908,0 -1.36525,0.28575 -1.86266,0.79374 -0.508,0.52917 -0.78317,1.18533 -0.78317,1.92616 z m 1.69333,-0.0106 c 0,-0.60325 0.43391,-1.06891 0.9525,-1.06891 0.51858,0 0.96308,0.46566 0.96308,1.06891 0,0.60325 -0.4445,1.06891 -0.96308,1.06891 -0.51859,0 -0.9525,-0.46566 -0.9525,-1.06891 z"
         style="stroke-width:0.264583;fill:#ffffff;fill-opacity:1"
         id="path1634" />
      <path
         d="m 120.71402,136.75794 h 1.62983 v -4.76249 c 0,-0.762 0.34925,-1.16416 0.97367,-1.16416 0.58208,0 0.96308,0.39158 0.96308,1.03716 0,0.635 -0.381,1.04775 -1.016,1.04775 -0.16933,0 -0.381,-0.0529 -0.65616,-0.13759 v 1.7145 c 0.30691,0.0635 0.53974,0.0847 0.71966,0.0847 1.53458,0 2.63524,-1.143 2.63524,-2.70933 0,-1.58749 -1.12183,-2.70932 -2.63524,-2.70932 -1.05833,0 -1.96849,0.58208 -2.39183,1.51341 -0.21166,0.46566 -0.22225,0.9525 -0.22225,1.49224 0,0.0529 0,0.0952 0,0.14817 z"
         style="stroke-width:0.264583;fill:#ffffff;fill-opacity:1"
         id="path1636" />
      <path
         d="m 131.97464,132.55637 -1.24883,-0.60325 c -0.37041,0.6985 -0.91016,1.06891 -1.51341,1.06891 -0.635,0 -1.15358,-0.55033 -1.15358,-1.29116 0,-0.73025 0.52917,-1.28058 1.16416,-1.28058 0.20109,0 0.39159,0.0529 0.58209,0.17991 l -1.37583,0.9525 0.63499,0.96308 2.54,-1.72508 c -0.55033,-1.07949 -1.41817,-1.65099 -2.4765,-1.65099 -0.70908,0 -1.36524,0.27517 -1.86266,0.78316 -0.50799,0.51859 -0.78316,1.18533 -0.78316,1.92616 0,0.74084 0.27517,1.40758 0.78316,1.92616 0.49742,0.508 1.16417,0.79375 1.86266,0.79375 1.23825,0 2.286,-0.71966 2.84691,-2.04257 z"
         style="stroke-width:0.264583;fill:#ffffff;fill-opacity:1"
         id="path1638" />
      <path
         d="m 132.55672,134.50369 h 1.59808 v -1.96849 c 0,-1.19591 0.48683,-1.68275 1.68274,-1.68275 0.0212,0 0.0529,0 0.0741,0 v -1.58749 c -0.0741,0 -0.13759,0 -0.20109,0 -0.78316,0 -1.30174,0.22225 -1.64041,0.78316 v -0.78316 h -1.51341 z"
         style="stroke-width:0.264583;fill:#ffffff;fill-opacity:1"
         id="path1640" />
    </g>
  </g>
</svg>
