<svg width="2367" height="734" viewBox="0 0 2367 734" fill="none" xmlns="http://www.w3.org/2000/svg">
<path d="M693.469 327.889L710.259 390.548C716 411.973 729.297 419.242 751.414 413.316L769.912 408.359L764.026 386.395L745.931 391.244C739.497 392.968 735.279 390.632 733.546 384.164L716.793 321.64L693.469 327.889Z" fill="white"/>
<path d="M820.139 293.948L797.083 300.126L812.356 357.125C815.136 367.501 812.023 374.112 803.981 376.267C796.072 378.386 790.07 374.217 787.29 363.841L772.017 306.842L748.828 313.056L763.74 368.708C770.492 393.906 789.244 404.912 810.155 399.309C831.065 393.706 841.802 374.798 835.05 349.6L820.139 293.948Z" fill="white"/>
<path d="M858.647 384.582L881.971 378.333L871.608 339.66L881.125 337.11C891.044 334.452 894.272 337.92 896.944 347.891L903.552 372.55L926.607 366.373L919.097 338.345C914.692 321.905 909.515 314.916 894.656 316.298C899.76 311.753 900.579 306.767 901.558 301.306L907.266 270.603L881.262 277.57L878.367 296.255C876.59 307.852 876.194 313.879 868.821 315.854L865.47 316.752L856.733 284.143L833.409 290.393L858.647 384.582Z" fill="white"/>
<path d="M997.113 347.481L991.336 325.921C989.898 326.451 988.289 326.882 986.949 327.241C969.523 331.91 957.794 329.42 951.931 319.871L987.184 310.425L981.551 289.404L946.7 298.742C948.209 287.217 956.669 280.184 972.754 275.874C974.229 275.479 975.837 275.048 977.616 274.716L971.875 253.291C971.071 253.507 970.266 253.722 969.462 253.938C953.243 258.284 941.731 264.112 934.731 271.765C923.307 284.358 919.422 300.419 923.755 316.589C928.087 332.759 939.519 344.86 955.708 350.055C965.597 353.182 978.481 352.473 994.7 348.128C995.504 347.912 996.309 347.697 997.113 347.481L997.113 347.481Z" fill="white"/>
<path d="M1021.6 239.966L1037.24 298.313C1043.52 321.759 1061.08 332.073 1080.52 326.866C1088.56 324.711 1094.8 319.573 1099.6 311.21C1107.93 316.053 1115.9 317.384 1123.95 315.229C1143.52 309.985 1153.47 292.442 1147.15 268.861L1131.52 210.514L1108.73 216.62L1124.76 276.449C1127.07 285.073 1124.55 290.66 1117.85 292.456C1111.14 294.252 1106.16 290.676 1103.85 282.052L1087.82 222.223L1065.3 228.257L1081.33 288.086C1083.64 296.71 1081.12 302.297 1074.42 304.093C1067.71 305.889 1062.73 302.313 1060.42 293.689L1044.39 233.86L1021.6 239.966Z" fill="white"/>
<path d="M1227.53 285.74L1221.75 264.181C1220.32 264.711 1218.71 265.142 1217.37 265.501C1199.94 270.17 1188.21 267.68 1182.35 258.13L1217.6 248.684L1211.97 227.664L1177.12 237.002C1178.63 225.477 1187.09 218.444 1203.17 214.134C1204.65 213.739 1206.25 213.308 1208.03 212.976L1202.29 191.551C1201.49 191.766 1200.68 191.982 1199.88 192.197C1183.66 196.543 1172.15 202.372 1165.15 210.025C1153.73 222.618 1149.84 238.679 1154.17 254.849C1158.51 271.019 1169.94 283.12 1186.13 288.314C1196.02 291.441 1208.9 290.733 1225.12 286.387C1225.92 286.172 1226.73 285.956 1227.53 285.741L1227.53 285.74Z" fill="white"/>
<path d="M1240.4 282.293L1263.72 276.043L1238.48 181.853L1215.16 188.103L1240.4 282.293Z" fill="white"/>
<path d="M1252.02 178.226L1268.81 240.884C1274.55 262.309 1287.85 269.578 1309.97 263.652L1328.46 258.695L1322.58 236.731L1304.48 241.58C1298.05 243.304 1293.83 240.968 1292.1 234.5L1275.34 171.976L1252.02 178.226Z" fill="white"/>
<path d="M1393.47 241.276L1387.7 219.716C1386.26 220.246 1384.65 220.677 1383.31 221.036C1365.88 225.706 1354.15 223.216 1348.29 213.666L1383.54 204.22L1377.91 183.199L1343.06 192.538C1344.57 181.012 1353.03 173.98 1369.12 169.67C1370.59 169.275 1372.2 168.844 1373.98 168.512L1368.24 147.087C1367.43 147.302 1366.63 147.518 1365.82 147.733C1349.6 152.079 1338.09 157.908 1331.09 165.56C1319.67 178.153 1315.78 194.214 1320.12 210.384C1324.45 226.554 1335.88 238.656 1352.07 243.85C1361.96 246.977 1374.84 246.269 1391.06 241.923C1391.87 241.707 1392.67 241.492 1393.47 241.276L1393.47 241.276Z" fill="white"/>
<path d="M1405.23 237.981L1428.56 231.731L1412.13 170.42C1409.85 161.931 1412.38 156.344 1418.68 154.656C1423.51 153.363 1428.23 155.995 1429.61 161.116C1431.16 166.91 1428.24 171.015 1420.6 173.062L1417.11 173.996L1422.78 195.152L1424.92 194.577C1436.18 191.56 1440.85 192.908 1443.67 203.418L1449.77 226.191L1473.1 219.942L1465.44 191.375C1462.12 178.978 1456.01 174.405 1443.45 176.326C1452.37 170.47 1455.77 161.182 1453.24 151.749C1449.34 137.196 1431.84 128.166 1413.07 133.195C1393.23 138.51 1383.21 155.783 1388.73 176.4L1405.23 237.981Z" fill="white"/>
<path d="M951.24 544.848L961.966 541.974C962.189 541.914 962.357 541.869 962.58 541.809C966.77 540.687 970.274 539.689 972.816 536.664C975 534.087 975.729 530.551 974.806 527.107C973.736 523.115 970.564 520.215 965.701 518.822L957.24 516.519C955.23 515.944 954.129 515.184 953.85 514.145C953.528 512.942 954.684 512.34 957.198 511.666L967.42 508.927L965.076 500.179L956.138 502.574C950.999 503.951 947.412 505.088 945.249 508.187C943.527 510.7 943.031 513.763 943.939 517.153C944.847 520.542 947.922 523.527 951.998 524.662L960.67 527.085C962.751 527.7 963.923 528.499 964.216 529.592C964.524 530.741 963.876 531.676 962.256 532.11L948.794 535.717L951.24 544.848Z" fill="white"/>
<path d="M977.213 523.356C978.239 527.183 980.6 530.184 984.013 532.199C987.342 534.12 991.201 534.668 994.944 533.665C998.686 532.662 1001.82 530.298 1003.73 526.915C1005.7 523.518 1006.15 519.644 1005.14 515.872C1004.13 512.099 1001.8 508.974 998.4 507.014C995.056 505.038 991.156 504.559 987.414 505.562C983.671 506.565 980.603 508.969 978.681 512.297C976.732 515.749 976.188 519.528 977.213 523.356ZM986.136 520.906C985.301 517.789 986.947 514.77 989.684 514.037C992.422 513.303 995.412 515.08 996.247 518.197C997.082 521.313 995.381 524.348 992.644 525.081C989.906 525.814 986.972 524.022 986.136 520.906Z" fill="white"/>
<path d="M1012.8 528.353L1021.46 526.033L1016.33 506.897L1024.49 504.712L1022.36 496.784L1014.21 498.969L1014.06 498.423C1013.55 496.509 1014.08 495.604 1016.26 495.02L1021.51 493.613L1019.37 485.631L1014.85 486.843C1006.41 489.103 1003.5 493.635 1005.56 501.344L1012.8 528.353Z" fill="white"/>
<path d="M1024.28 489.181L1030.3 511.652C1032.36 519.361 1037.15 521.827 1045.59 519.567L1048.83 518.699L1046.69 510.716L1042.72 511.779C1040.55 512.363 1039.63 511.847 1039.12 509.933L1036.83 501.404L1043.7 499.563L1041.58 491.635L1034.71 493.476L1032.93 486.861L1024.28 489.181Z" fill="white"/>
<path d="M1085.71 479.81L1077.16 482.101L1081.34 497.683C1081.94 499.924 1080.78 501.874 1078.72 502.428C1076.65 502.982 1074.73 501.855 1074.13 499.614L1069.95 484.031L1061.35 486.336L1065.53 501.919C1066.13 504.16 1065.03 506.095 1062.96 506.649C1060.9 507.203 1058.92 506.091 1058.32 503.85L1054.15 488.267L1045.6 490.557L1049.42 504.827C1051.68 513.247 1058.07 516.751 1065.16 514.85C1067.95 514.102 1070.48 512.136 1072.1 509.241C1074.84 510.968 1078.06 511.393 1081.25 510.54C1087.95 508.743 1091.77 502.446 1089.53 494.081L1085.71 479.81Z" fill="white"/>
<path d="M1115.69 500.782L1124.35 498.462L1121.32 487.145C1120.49 484.028 1119.75 481.295 1117.82 479C1114.3 474.787 1108.69 473.067 1103.1 474.564C1095.11 476.704 1090.75 484.086 1092.94 492.288C1095.11 500.379 1102.5 504.728 1110.6 502.557C1111.55 502.303 1112.75 501.864 1114.28 501.102L1111.91 492.245C1110.58 493.071 1109.53 493.644 1108.64 493.883C1105.29 494.781 1102.7 493.188 1101.82 489.907C1100.95 486.627 1102.46 483.996 1105.3 483.232C1108.82 482.289 1111.15 483.833 1112.22 487.824L1115.69 500.782Z" fill="white"/>
<path d="M1129.16 497.175L1137.59 494.915L1134.87 484.746C1133.21 478.567 1135.11 475.364 1141.42 473.672C1141.53 473.642 1141.7 473.597 1141.81 473.568L1139.61 465.366C1139.22 465.471 1138.89 465.561 1138.55 465.651C1134.42 466.758 1131.99 468.64 1130.98 472.017L1129.89 467.971L1121.91 470.111L1129.16 497.175Z" fill="white"/>
<path d="M1175.73 473.913L1168.3 472.563C1167.32 476.696 1164.98 479.373 1161.8 480.226C1158.44 481.124 1154.94 479.014 1153.92 475.187C1152.91 471.414 1154.94 467.823 1158.29 466.925C1159.35 466.64 1160.43 466.644 1161.61 467.031L1155.67 473.898L1160.35 477.975L1171.37 465.471C1166.97 460.672 1161.6 458.947 1156.02 460.444C1152.27 461.447 1149.19 463.796 1147.27 467.124C1145.31 470.522 1144.78 474.355 1145.8 478.183C1146.83 482.01 1149.2 485.065 1152.6 487.026C1155.93 488.947 1159.84 489.48 1163.53 488.492C1170.07 486.741 1174.6 481.541 1175.73 473.913Z" fill="white"/>
<path d="M1197.59 478.84L1207.31 476.235L1199.5 447.094C1199.83 447.004 1200.1 446.874 1200.43 446.784C1206.91 445.048 1212.37 448.215 1213.9 453.901C1215.4 459.532 1212.44 464.78 1206.35 466.646L1208.81 475.831C1213.62 474.31 1217.18 472.184 1219.55 469.437C1223.98 464.267 1225.61 457.619 1223.91 451.276C1222.14 444.661 1217.16 439.724 1210.08 437.637C1205.27 436.23 1200.42 437.12 1194.5 438.706L1187.35 440.622L1197.59 478.84Z" fill="white"/>
<path d="M1258.24 451.806L1250.81 450.456C1249.82 454.588 1247.49 457.265 1244.3 458.118C1240.95 459.016 1237.45 456.907 1236.43 453.079C1235.42 449.307 1237.45 445.715 1240.8 444.817C1241.86 444.533 1242.94 444.537 1244.12 444.923L1238.18 451.79L1242.86 455.867L1253.88 443.363C1249.48 438.565 1244.11 436.84 1238.52 438.336C1234.78 439.339 1231.7 441.689 1229.78 445.017C1227.81 448.414 1227.28 452.248 1228.31 456.075C1229.33 459.902 1231.71 462.958 1235.11 464.918C1238.44 466.839 1242.35 467.372 1246.04 466.384C1252.57 464.633 1257.11 459.433 1258.24 451.806Z" fill="white"/>
<path d="M1269.67 444.407L1262.51 432.437L1253.57 434.832L1266.92 455.163C1269.05 458.403 1271.62 459.529 1274.86 458.661C1278.1 457.793 1279.83 455.514 1280.05 451.646L1281.39 427.378L1272.45 429.773L1272.29 443.704C1272.28 445.876 1272.31 447.8 1272.42 449.53C1271.63 447.925 1270.75 446.226 1269.67 444.407Z" fill="white"/>
<path d="M1315.77 436.389L1308.35 435.039C1307.36 439.171 1305.02 441.848 1301.84 442.701C1298.49 443.599 1294.99 441.49 1293.96 437.662C1292.95 433.89 1294.98 430.298 1298.33 429.4C1299.4 429.116 1300.48 429.12 1301.66 429.507L1295.71 436.373L1300.4 440.45L1311.42 427.946C1307.02 423.148 1301.65 421.423 1296.06 422.919C1292.32 423.922 1289.23 426.272 1287.31 429.6C1285.35 432.997 1284.82 436.831 1285.84 440.658C1286.87 444.485 1289.25 447.541 1292.64 449.501C1295.97 451.422 1299.89 451.955 1303.58 450.967C1310.11 449.216 1314.64 444.016 1315.77 436.389Z" fill="white"/>
<path d="M1321.54 445.626L1330.37 443.261L1320.13 405.043L1311.3 407.408L1321.54 445.626Z" fill="white"/>
<path d="M1330.7 428.639C1331.73 432.466 1334.09 435.467 1337.5 437.482C1340.83 439.403 1344.69 439.951 1348.43 438.948C1352.17 437.945 1355.31 435.581 1357.22 432.198C1359.18 428.801 1359.64 424.928 1358.63 421.155C1357.62 417.382 1355.29 414.257 1351.89 412.297C1348.54 410.321 1344.64 409.843 1340.9 410.846C1337.16 411.849 1334.09 414.253 1332.17 417.581C1330.22 421.033 1329.68 424.812 1330.7 428.639ZM1339.62 426.189C1338.79 423.073 1340.43 420.053 1343.17 419.32C1345.91 418.587 1348.9 420.364 1349.73 423.48C1350.57 426.597 1348.87 429.631 1346.13 430.364C1343.39 431.098 1340.46 429.306 1339.62 426.189Z" fill="white"/>
<path d="M1369.13 445.357L1377.73 443.052L1371.14 418.449C1370.08 414.512 1371.37 411.94 1374.67 411.057C1377.74 410.234 1380.29 411.718 1381.18 415.053C1382.06 418.334 1380.62 421.005 1377.27 421.903C1376.38 422.142 1375.19 422.169 1373.62 422.12L1375.99 430.977C1377.7 430.871 1378.96 430.652 1379.91 430.397C1388.01 428.227 1392.23 420.765 1390.07 412.674C1387.87 404.472 1380.39 400.264 1372.41 402.404C1366.82 403.901 1362.82 408.195 1361.88 413.605C1361.4 416.31 1362.02 418.84 1362.77 421.629C1362.84 421.902 1362.9 422.12 1362.97 422.394L1369.13 445.357Z" fill="white"/>
<path d="M1422.75 407.725L1415.32 406.375C1414.33 410.508 1412 413.185 1408.81 414.038C1405.46 414.936 1401.96 412.826 1400.94 408.999C1399.93 405.226 1401.96 401.635 1405.31 400.737C1406.37 400.452 1407.45 400.456 1408.63 400.843L1402.69 407.71L1407.37 411.787L1418.39 399.283C1413.99 394.484 1408.62 392.759 1403.03 394.256C1399.29 395.259 1396.21 397.608 1394.29 400.936C1392.32 404.334 1391.79 408.167 1392.82 411.995C1393.84 415.822 1396.22 418.877 1399.62 420.838C1402.95 422.759 1406.86 423.292 1410.55 422.304C1417.08 420.553 1421.62 415.353 1422.75 407.725Z" fill="white"/>
<path d="M1428.52 416.962L1436.95 414.702L1434.23 404.533C1432.57 398.354 1434.47 395.151 1440.78 393.459C1440.89 393.429 1441.06 393.385 1441.17 393.355L1438.97 385.154C1438.58 385.258 1438.25 385.348 1437.91 385.438C1433.78 386.546 1431.35 388.427 1430.34 391.804L1429.25 387.758L1421.26 389.898L1428.52 416.962Z" fill="white"/>
<rect width="2383.51" height="41.0219" transform="matrix(0.964395 -0.264465 0.546202 0.837653 45.3047 698.655)" fill="#23AFC4"/>
<rect width="2383.51" height="41.0219" transform="matrix(0.964395 -0.264465 0.546202 0.837653 22.6598 664.453)" fill="#71C919"/>
<rect width="2383.84" height="41.0355" transform="matrix(0.964487 -0.26413 0.547004 0.83713 0.0146484 630.252)" fill="#EF0E30"/>
</svg>
